<svg width="27" height="32" viewBox="0 0 27 30" fill="none" xmlns="http://www.w3.org/2000/svg">
<path d="M13.125 1.875C14.3682 1.875 15.5605 2.36886 16.4396 3.24794C17.3186 4.12701 17.8125 5.3193 17.8125 6.5625V7.5H8.4375V6.5625C8.4375 5.3193 8.93136 4.12701 9.81044 3.24794C10.6895 2.36886 11.8818 1.875 13.125 1.875V1.875ZM19.6875 7.5V6.5625C19.6875 4.82202 18.9961 3.15282 17.7654 1.92211C16.5347 0.691404 14.8655 0 13.125 0C11.3845 0 9.71532 0.691404 8.48461 1.92211C7.2539 3.15282 6.5625 4.82202 6.5625 6.5625V7.5H0V26.25C0 27.2446 0.395088 28.1984 1.09835 28.9016C1.80161 29.6049 2.75544 30 3.75 30H22.5C23.4946 30 24.4484 29.6049 25.1516 28.9016C25.8549 28.1984 26.25 27.2446 26.25 26.25V7.5H19.6875ZM1.875 9.375H24.375V26.25C24.375 26.7473 24.1775 27.2242 23.8258 27.5758C23.4742 27.9275 22.9973 28.125 22.5 28.125H3.75C3.25272 28.125 2.77581 27.9275 2.42417 27.5758C2.07254 27.2242 1.875 26.7473 1.875 26.25V9.375Z" fill="#8300E4"/>
</svg>
