<svg width="25" height="27" viewBox="0 0 25 27" fill="none" xmlns="http://www.w3.org/2000/svg">
<path d="M0 0.9375C0 0.68886 0.098772 0.450403 0.274587 0.274587C0.450403 0.098772 0.68886 0 0.9375 0H23.4375C23.6861 0 23.9246 0.098772 24.1004 0.274587C24.2762 0.450403 24.375 0.68886 24.375 0.9375V4.6875C24.375 4.9187 24.2895 5.14174 24.135 5.31375L15.9375 14.4225V23.4375C15.9374 23.6342 15.8753 23.8258 15.7603 23.9853C15.6452 24.1448 15.4829 24.2641 15.2962 24.3262L9.67125 26.2012C9.53039 26.2482 9.3804 26.261 9.23363 26.2386C9.08685 26.2162 8.9475 26.1593 8.82703 26.0725C8.70656 25.9857 8.60843 25.8715 8.54071 25.7394C8.47299 25.6073 8.43761 25.461 8.4375 25.3125V14.4225L0.24 5.31375C0.0855153 5.14174 4.15319e-05 4.9187 0 4.6875V0.9375ZM1.875 1.875V4.3275L10.0725 13.4363C10.227 13.6083 10.3125 13.8313 10.3125 14.0625V24.0112L14.0625 22.7625V14.0625C14.0625 13.8313 14.148 13.6083 14.3025 13.4363L22.5 4.3275V1.875H1.875Z" fill="#8300E4"/>
</svg>
