<?xml version="1.0" standalone="no"?>
<!DOCTYPE svg PUBLIC "-//W3C//DTD SVG 20010904//EN"
 "http://www.w3.org/TR/2001/REC-SVG-20010904/DTD/svg10.dtd">
<svg version="1.0" xmlns="http://www.w3.org/2000/svg"
 width="384.000000pt" height="384.000000pt" viewBox="0 0 384.000000 384.000000"
 preserveAspectRatio="xMidYMid meet">
<metadata>
Created by potrace 1.10, written by Peter Selinger 2001-2011
</metadata>
<g transform="translate(0.000000,384.000000) scale(0.100000,-0.100000)"
fill="#000000" stroke="none">
<path d="M670 3825 c0 -8 -8 -19 -19 -24 -27 -15 -33 -35 -40 -126 l-6 -80
-140 -6 c-151 -6 -182 -14 -262 -66 -90 -59 -146 -152 -162 -267 -15 -108 -15
-2820 0 -2937 9 -73 16 -92 55 -151 46 -69 110 -124 178 -152 35 -14 190 -16
1634 -16 1237 0 1604 3 1631 12 20 7 55 27 79 45 24 17 47 33 52 35 4 2 27 32
51 68 30 46 47 84 56 130 9 50 12 386 12 1500 0 1544 1 1534 -51 1602 -13 18
-27 41 -31 50 -9 26 -116 106 -167 125 -31 12 -88 19 -185 23 l-140 5 -6 89
c-6 81 -9 92 -33 111 -14 11 -26 26 -26 33 0 8 -17 12 -50 12 -29 0 -50 -5
-50 -11 0 -6 -13 -24 -30 -40 -27 -27 -29 -36 -32 -112 l-3 -82 -110 0 -110 0
-5 89 c-5 81 -8 90 -33 110 -15 12 -27 27 -27 34 0 8 -17 12 -50 12 -29 0 -50
-5 -50 -11 0 -6 -13 -24 -30 -40 -27 -27 -29 -36 -32 -112 l-3 -82 -625 0
-625 0 -5 88 c-5 82 -7 91 -32 111 -16 12 -28 27 -28 34 0 8 -17 12 -50 12
-37 0 -50 -4 -50 -15 0 -8 -8 -19 -19 -24 -27 -15 -33 -35 -40 -126 l-6 -80
-110 0 -110 0 -5 88 c-5 82 -7 91 -32 111 -16 12 -28 27 -28 34 0 8 -17 12
-50 12 -37 0 -50 -4 -50 -15z m-74 -473 c6 -4 14 -44 17 -89 6 -90 17 -109 74
-132 40 -16 72 -9 112 25 30 25 31 29 31 103 0 47 5 82 12 89 17 17 192 16
206 0 5 -7 12 -47 14 -89 5 -84 18 -105 75 -128 40 -16 72 -9 112 25 30 25 31
29 31 102 0 43 4 83 8 90 7 10 139 12 628 10 l619 -3 5 -80 c6 -93 24 -128 76
-145 25 -9 43 -9 68 0 56 18 69 41 74 130 3 47 10 84 17 90 8 6 53 10 111 8
l99 -3 5 -80 c6 -94 25 -130 79 -146 28 -8 44 -7 72 5 53 22 62 39 67 124 2
42 9 83 14 90 7 8 41 12 112 11 139 -2 154 -6 193 -58 l33 -43 -2 -192 -3
-191 -1645 0 -1645 0 0 197 0 196 31 39 c18 21 44 41 60 44 41 9 227 10 240 1z
m2958 -718 c3 -9 6 -532 6 -1164 l0 -1148 -33 -43 c-18 -24 -44 -46 -57 -50
-31 -9 -3074 -9 -3114 0 -16 3 -42 23 -60 44 l-31 39 -3 1155 c-2 851 1 1159
9 1169 10 12 275 14 1644 14 1480 0 1633 -1 1639 -16z"/>
<path d="M1795 2323 c-45 -7 -136 -30 -175 -44 -54 -19 -206 -94 -220 -109 -3
-3 -27 -23 -55 -45 -63 -49 -81 -67 -130 -130 -22 -27 -42 -52 -45 -55 -6 -6
-41 -70 -73 -135 -94 -192 -109 -437 -40 -650 40 -120 112 -242 209 -351 28
-31 165 -135 199 -151 17 -7 50 -25 74 -38 24 -14 53 -25 63 -25 10 0 31 -6
46 -14 33 -16 202 -46 264 -46 57 0 207 26 273 47 57 18 220 97 235 113 3 3
28 23 55 45 63 49 81 67 130 130 22 28 42 52 45 55 14 14 93 170 110 220 35
104 44 160 44 290 0 171 -18 246 -98 410 -112 231 -319 393 -596 466 -57 15
-262 26 -315 17z m310 -250 c225 -75 372 -223 450 -453 27 -78 27 -301 1 -380
-17 -50 -26 -69 -71 -156 -45 -87 -159 -192 -267 -245 -102 -51 -132 -61 -218
-70 -228 -24 -404 36 -559 192 -84 83 -131 157 -171 269 -31 88 -31 313 0 400
29 79 81 176 121 224 48 57 130 129 173 151 85 44 104 53 141 66 22 7 63 16
90 20 77 11 254 1 310 -18z"/>
<path d="M2195 1738 c-17 -6 -101 -81 -195 -174 -91 -90 -171 -164 -178 -164
-7 0 -46 33 -87 74 -88 87 -127 106 -176 85 -51 -20 -68 -47 -69 -104 l0 -50
138 -137 c75 -75 148 -139 160 -143 13 -4 40 -4 60 0 31 5 72 41 255 223 225
224 245 251 230 311 -8 35 -32 61 -70 77 -18 8 -34 14 -35 13 -2 0 -16 -5 -33
-11z"/>
</g>
</svg>
