<?xml version="1.0" standalone="no"?>
<!DOCTYPE svg PUBLIC "-//W3C//DTD SVG 20010904//EN"
 "http://www.w3.org/TR/2001/REC-SVG-20010904/DTD/svg10.dtd">
<svg version="1.0" xmlns="http://www.w3.org/2000/svg"
 width="384.000000pt" height="384.000000pt" viewBox="0 0 384.000000 384.000000"
 preserveAspectRatio="xMidYMid meet">
<metadata>
Created by potrace 1.10, written by Peter Selinger 2001-2011
</metadata>
<g transform="translate(0.000000,384.000000) scale(0.100000,-0.100000)"
fill="#000000" stroke="none">
<path d="M2590 3826 c0 -9 -17 -16 -52 -21 -64 -8 -132 -29 -216 -67 -34 -15
-65 -28 -68 -28 -3 0 -42 -24 -88 -54 -111 -73 -316 -276 -316 -314 0 -5 -7
-15 -15 -22 -18 -15 -105 -194 -105 -216 0 -8 -5 -25 -11 -36 -44 -82 -66
-400 -34 -504 31 -103 94 -30 -751 -874 -421 -421 -785 -790 -809 -821 -58
-74 -100 -148 -110 -190 -14 -62 -17 -252 -5 -294 51 -178 197 -324 375 -375
42 -12 232 -9 294 5 42 10 116 52 190 110 31 24 400 388 821 809 844 845 771
782 874 751 67 -20 284 -20 379 1 80 17 157 40 202 59 94 41 133 60 162 81 17
13 35 24 38 24 15 0 94 68 173 148 69 70 192 234 192 256 0 3 13 34 28 68 38
84 59 152 67 216 5 35 12 52 21 52 11 0 14 29 14 160 0 133 -2 160 -14 160
-10 0 -17 16 -21 48 -3 26 -10 61 -16 77 -6 17 -14 44 -19 61 -13 53 -42 92
-81 109 -69 31 -84 20 -413 -308 -245 -243 -304 -297 -320 -292 -12 3 -43 10
-71 16 -27 6 -73 17 -101 25 -28 8 -62 14 -76 14 -32 0 -44 15 -50 60 -3 19
-10 58 -17 85 -7 28 -17 70 -23 95 -6 25 -12 52 -15 61 -3 10 98 118 294 315
328 329 339 344 308 413 -17 39 -56 68 -109 81 -17 5 -44 13 -61 19 -16 6 -51
13 -77 16 -32 4 -48 11 -48 21 0 12 -27 14 -160 14 -131 0 -160 -3 -160 -14z
m234 -232 c25 -4 46 -10 46 -13 0 -4 -106 -113 -236 -241 -131 -131 -245 -253
-256 -275 -20 -38 -20 -42 -5 -105 8 -36 23 -101 32 -145 9 -44 23 -105 31
-136 8 -30 14 -65 14 -78 0 -57 66 -134 125 -145 54 -10 253 -53 376 -81 74
-17 76 -17 115 3 21 11 145 127 274 256 128 130 237 236 241 236 11 0 19 -174
10 -235 -23 -150 -85 -304 -155 -386 -17 -20 -48 -56 -69 -82 -20 -25 -65 -67
-98 -93 -64 -49 -222 -133 -250 -134 -9 0 -34 -8 -55 -17 -58 -25 -370 -26
-432 0 -52 21 -140 22 -169 2 -12 -8 -383 -376 -825 -818 -505 -505 -825 -817
-862 -841 -57 -38 -61 -39 -150 -39 -105 0 -150 17 -216 83 -66 66 -83 111
-83 216 0 89 1 93 39 150 24 37 336 357 841 862 442 442 810 813 818 825 20
29 19 117 -2 169 -26 62 -25 374 0 432 9 21 17 46 17 55 1 27 83 183 130 245
46 60 182 185 229 209 14 8 54 28 87 45 34 18 77 35 95 38 19 4 43 12 54 17
18 10 114 22 206 25 20 1 57 -1 83 -4z"/>
</g>
</svg>
