<?xml version="1.0" standalone="no"?>
<!DOCTYPE svg PUBLIC "-//W3C//DTD SVG 20010904//EN"
 "http://www.w3.org/TR/2001/REC-SVG-20010904/DTD/svg10.dtd">
<svg version="1.0" xmlns="http://www.w3.org/2000/svg"
 width="128.000000pt" height="128.000000pt" viewBox="0 0 128.000000 128.000000"
 preserveAspectRatio="xMidYMid meet">
<metadata>
Created by potrace 1.10, written by Peter Selinger 2001-2011
</metadata>
<g transform="translate(0.000000,128.000000) scale(0.100000,-0.100000)"
fill="#000000" stroke="none">
<path d="M785 1220 c-19 -6 -60 -42 -104 -90 -123 -135 -324 -279 -501 -356
-90 -40 -116 -63 -131 -117 -34 -125 58 -344 162 -387 26 -11 48 -11 113 -2
45 7 87 12 92 12 6 0 30 -40 53 -90 l43 -90 84 -27 c76 -25 86 -26 100 -12 14
14 14 27 0 134 -9 65 -13 121 -10 124 3 3 105 6 226 6 l219 0 39 42 c56 59 74
129 68 258 -10 180 -94 380 -213 500 -86 87 -164 118 -240 95z m101 -86 c145
-69 287 -366 271 -570 -11 -150 -86 -206 -183 -136 -65 47 -68 55 -44 98 27
52 27 154 0 232 -38 109 -121 202 -180 202 -20 0 -21 3 -15 43 12 67 35 116
64 132 34 18 46 18 87 -1z m-190 -432 c30 -89 78 -180 133 -250 l39 -49 -151
-7 c-141 -6 -206 -13 -394 -47 -69 -12 -74 -12 -100 7 -45 33 -94 140 -100
215 -3 45 -1 69 9 81 7 10 64 42 125 72 116 57 251 142 338 215 l50 41 12
-101 c7 -55 25 -135 39 -177z m92 146 c46 -48 75 -122 80 -204 3 -43 0 -74 -6
-78 -23 -14 -122 219 -122 288 0 34 9 33 48 -6z m-184 -578 c3 -22 9 -58 12
-80 l6 -40 -29 11 c-26 9 -42 34 -81 130 -3 8 25 15 65 18 18 1 22 -6 27 -39z"/>
</g>
</svg>
