<svg width="25" height="25" viewBox="0 0 25 25" fill="none" xmlns="http://www.w3.org/2000/svg">
<path d="M1.45481 24.0762C1.89817 24.5566 3.72434 23.7188 5.16575 23.0469C6.24583 22.5449 10.5681 20.7715 12.7165 19.8516C13.2966 19.6035 14.1404 19.2793 14.7478 18.4805C15.2868 17.7695 16.7165 14.75 13.8376 11.6914C10.9157 8.58595 7.90599 9.44337 6.78099 10.2402C6.11888 10.709 5.57981 11.7656 5.33763 12.3027C4.31419 14.5723 2.8552 18.7305 2.26145 20.3652C1.82591 21.5703 1.01536 23.5996 1.45481 24.0762Z" fill="#FFC107"/>
<path d="M5.04883 12.9863C5.07617 13.3262 5.14453 13.8789 5.37891 14.9434C5.53906 15.6738 5.80078 16.4395 6.01367 16.9453C6.65234 18.4668 7.54883 19.0801 8.45703 19.5723C10 20.4082 11.0488 20.5645 11.0488 20.5645L9.79102 21.0781C9.79102 21.0781 9.0293 20.9199 7.99023 20.4082C7 19.9199 5.96875 19.0938 5.21484 17.4766C4.88867 16.7754 4.69922 16.0957 4.58984 15.5566C4.45508 14.8887 4.43359 14.5098 4.43359 14.5098L5.04883 12.9863Z" fill="#FF8F00"/>
<path d="M3.50391 16.9473C3.50391 16.9473 3.66016 18.2148 4.70703 19.8145C5.93359 21.6855 7.64648 21.9922 7.64648 21.9922L6.50781 22.4609C6.50781 22.4609 5.23633 22.0723 4.02734 20.4219C3.27344 19.3926 3.0625 18.1621 3.0625 18.1621L3.50391 16.9473Z" fill="#FF8F00"/>
<path d="M2.41992 19.9512C2.41992 19.9512 2.70508 21.0449 3.33008 21.8613C4.07422 22.8359 5.02148 23.1191 5.02148 23.1191L4.14844 23.5059C4.14844 23.5059 3.48633 23.3672 2.76172 22.4492C2.21094 21.752 2.05469 20.9512 2.05469 20.9512L2.41992 19.9512Z" fill="#FF8F00"/>
<path opacity="0.44" d="M1.94507 22.7285C1.90601 22.6406 1.90601 22.541 1.94703 22.4551L6.92164 12.1387L7.74 15.2148L2.50562 22.7754C2.36499 22.9863 2.04859 22.959 1.94507 22.7285Z" fill="#FFFDE7"/>
<path d="M8.135 16.2481C10.4592 18.9668 13.1057 18.627 13.9866 17.9395C14.8694 17.25 15.5666 14.8809 13.2522 12.207C10.8264 9.40626 8.08031 10.2051 7.44555 10.8106C6.81078 11.416 6.00219 13.7539 8.135 16.2481Z" fill="url(#paint0_linear_340_72)"/>
<path d="M16.1172 17.3672C15.2695 16.6562 14.8184 16.7832 14.2129 17.0352C13.4316 17.3594 12.2031 17.5996 10.5352 17.0352L11.0371 15.8262C12.0273 16.1602 12.7441 15.998 13.3633 15.6328C14.1602 15.1641 15.25 14.5215 16.9453 15.9453C17.6523 16.5391 18.377 16.9336 18.9082 16.7539C19.2949 16.625 19.5 16.0488 19.6035 15.5898C19.6133 15.5488 19.6289 15.4316 19.6406 15.3281C19.7344 14.6113 19.8906 13.0645 21.043 12.2734C22.2754 11.4277 23.5703 11.4277 23.5703 11.4277L23.8047 13.7559C23.209 13.668 22.7949 13.7891 22.4453 13.9824C21.1289 14.7148 22.2754 17.5273 20.2266 18.4727C18.2559 19.3887 16.6445 17.8086 16.1172 17.3672Z" fill="#03A9F4"/>
<path d="M8.86685 14.3984L8.01919 13.6387C9.57583 11.9004 9.16568 10.623 8.86685 9.69336C8.8063 9.50586 8.74966 9.32812 8.71255 9.1582C8.57974 8.55664 8.5524 8.0332 8.59341 7.57617C7.99576 6.83203 7.73208 6.05273 7.71451 6C7.35122 4.90039 7.62466 3.82812 8.25161 2.82227C9.51919 0.78125 11.8141 0.78125 11.8141 0.78125L12.5797 2.83008C11.9977 2.80664 10.0895 2.83594 9.50357 3.75977C8.76333 4.92383 9.24966 5.64258 9.28482 5.72461C9.4274 5.53906 9.57193 5.39062 9.70083 5.27539C10.6364 4.44531 11.4489 4.32617 11.9665 4.37305C12.5485 4.42578 13.0758 4.71875 13.4528 5.19922C13.8649 5.72656 14.0348 6.41211 13.904 7.03516C13.777 7.64258 13.3727 8.15625 12.7653 8.48242C11.7047 9.05273 10.8219 8.97461 10.2301 8.77734C10.234 8.79102 10.236 8.80664 10.2399 8.82031C10.2614 8.91797 10.3043 9.05469 10.3551 9.21289C10.7008 10.2832 11.3434 11.9824 8.86685 14.3984ZM10.3024 7.06836C10.4157 7.15039 10.5348 7.21875 10.6579 7.26758C11.068 7.43164 11.5153 7.37695 12.0231 7.10352C12.3219 6.94336 12.3571 6.77148 12.3688 6.71484C12.404 6.54492 12.3454 6.32812 12.2184 6.16602C12.1071 6.02344 11.9782 5.94922 11.8239 5.93359C11.5309 5.9082 11.1344 6.09375 10.7379 6.44727C10.5485 6.61719 10.404 6.82617 10.3024 7.06836Z" fill="#F44336"/>
<path d="M12.2598 14.7168L11.0469 14.6836C11.0469 14.6836 11.623 11.4297 13.4883 10.8828C13.8379 10.7812 14.2207 10.6777 14.6055 10.6211C14.834 10.5859 15.1953 10.5332 15.373 10.4668C15.4141 10.1602 15.2852 9.76953 15.1406 9.32617C15.0273 8.98242 14.9102 8.62891 14.8477 8.24219C14.7266 7.48828 14.9277 6.82227 15.4141 6.36328C16.0078 5.80664 16.9668 5.62891 18.0488 5.875C18.666 6.01563 19.1211 6.31836 19.5215 6.58398C20.0937 6.96484 20.4277 7.1582 21.127 6.6875C21.9727 6.11719 20.8672 3.88477 20.2793 2.5957L22.4727 1.68164C22.7676 2.32617 24.1914 5.64258 23.252 7.53516C22.9355 8.17188 22.3906 8.59375 21.6758 8.75195C20.1211 9.09961 19.2109 8.49414 18.5469 8.05273C18.2324 7.84375 17.957 7.67969 17.6582 7.59375C15.582 7.00195 18.4805 10.0566 17.123 11.4297C16.3086 12.252 14.3184 12.4688 14.1895 12.5C12.9082 12.8086 12.2598 14.7168 12.2598 14.7168Z" fill="#F48FB1"/>
<path d="M8.59182 7.57617C8.55471 8.00586 8.53713 8.26172 8.64846 8.82031C9.18557 9.21484 10.3555 9.21484 10.3555 9.21484C10.3047 9.05664 10.2598 8.91992 10.2403 8.82227C10.2363 8.80859 10.2344 8.79297 10.2305 8.7793C9.04104 8.18555 8.59182 7.57617 8.59182 7.57617Z" fill="#C92B27"/>
<path d="M6.1582 9.5L4.13867 8.50977L5.14453 7.05664L6.72852 8.10547L6.1582 9.5Z" fill="#FFC107"/>
<path d="M3.18164 6.75781C2.15039 6.61914 1.09961 5.74414 0.984375 5.64453L1.99805 4.45508C2.30469 4.71484 2.95508 5.15039 3.39063 5.20898L3.18164 6.75781Z" fill="#FB8C00"/>
<path d="M5.00195 4.1543L3.51758 3.66797C3.6875 3.14844 3.73242 2.58789 3.64453 2.04687L5.1875 1.79883C5.31445 2.58398 5.25 3.39844 5.00195 4.1543Z" fill="#03A9F4"/>
<path d="M14.2725 2.99313L15.7989 2.65923L16.2396 4.67408L14.7132 5.00799L14.2725 2.99313Z" fill="#FB8C00"/>
<path d="M18.0586 3.4707L16.9844 2.33594C17.5469 1.80273 17.6758 1.10547 17.6758 1.09766L19.2188 1.34961C19.1992 1.47266 19.002 2.57812 18.0586 3.4707Z" fill="#FFC107"/>
<path d="M18.6553 9.48853L20.0199 9.06205L20.486 10.5535L19.1214 10.9799L18.6553 9.48853Z" fill="#FB8C00"/>
<path d="M19.0527 22.0762L17.5 21.8926C17.5664 21.3398 17.1543 20.6621 17.041 20.5117L18.291 19.5742C18.3848 19.6973 19.1992 20.8242 19.0527 22.0762Z" fill="#F44336"/>
<path d="M23.5098 20.0957C22.9258 20.0078 22.3281 19.9726 21.7383 19.9941L21.6855 18.4316C22.3711 18.4082 23.0645 18.4473 23.7422 18.5508L23.5098 20.0957Z" fill="#FB8C00"/>
<path d="M21.4092 22.2465L22.507 21.1346L24.0178 22.6262L22.9199 23.7381L21.4092 22.2465Z" fill="#F48FB1"/>
<path d="M18.1836 12.3694L19.3125 13.6601L18.0217 14.789L16.8928 13.4982L18.1836 12.3694Z" fill="#F44336"/>
<defs>
<linearGradient id="paint0_linear_340_72" x1="14.5284" y1="12.0778" x2="8.71449" y2="15.5662" gradientUnits="userSpaceOnUse">
<stop offset="0.0235" stop-color="#8F4700"/>
<stop offset="1" stop-color="#703E2D"/>
</linearGradient>
</defs>
</svg>
